<svg aria-hidden="true" style="position:absolute;width:0;height:0;overflow:hidden" xmlns="http://www.w3.org/2000/svg"><defs><symbol id="icon-01" viewBox="0 0 32 32"><path  d="M24.857 17.331a1.693 1.693 0 0 0-1.834-.365c-.204.084-.39.209-.546.365l-2.684 2.684c-1.244-.37-3.566-1.212-5.038-2.684s-2.313-3.793-2.684-5.038l2.684-2.684a1.678 1.678 0 0 0 .365-1.834 1.678 1.678 0 0 0-.365-.546L8.02.494A1.678 1.678 0 0 0 6.186.129c-.204.084-.39.209-.546.365L1.074 5.06c-.64.64-1 1.519-.987 2.416.039 2.398.673 10.725 7.237 17.289s14.891 7.196 17.29 7.237h.047c.889 0 1.729-.35 2.366-.987l4.566-4.566a1.693 1.693 0 0 0 .365-1.834 1.678 1.678 0 0 0-.365-.546l-6.735-6.737zm-.214 11.301c-2.101-.035-9.291-.599-14.94-6.25C4.036 16.715 3.487 9.5 3.453 7.441l3.376-3.376 4.354 4.354-2.177 2.177a1.685 1.685 0 0 0-.458 1.536c.04.194 1.029 4.785 3.824 7.58s7.387 3.783 7.58 3.824a1.663 1.663 0 0 0 1.535-.456l2.179-2.177 4.354 4.354-3.378 3.376z"/></symbol><symbol id="icon-02" viewBox="0 0 26 32"><path d="M12.845 18.93c3.604 0 6.535-2.83 6.535-6.31s-2.931-6.31-6.535-6.31S6.31 9.14 6.31 12.62s2.931 6.31 6.535 6.31zm0-9.465c1.802 0 3.268 1.415 3.268 3.155s-1.466 3.155-3.268 3.155c-1.802 0-3.268-1.415-3.268-3.155s1.466-3.155 3.268-3.155z"/><path  d="M11.914 31.703a1.608 1.608 0 0 0 1.862 0c.488-.344 11.96-8.598 11.914-18.903C25.69 5.742 19.927 0 12.845 0S0 5.742 0 12.792c-.047 10.312 11.426 18.567 11.914 18.911zM12.845 3.2c5.313 0 9.634 4.306 9.634 9.608.034 7.101-7.045 13.477-9.634 15.568-2.587-2.093-9.667-8.471-9.634-15.576 0-5.294 4.321-9.6 9.634-9.6z"/></symbol><symbol id="icon-03" viewBox="0 0 32 32"><path d="M30.805.524c-.175-.182-.397-.307-.639-.362s-.494-.037-.726.051L.839 11.029c-.247.097-.459.27-.609.496a1.39 1.39 0 0 0 0 1.536c.15.226.362.399.609.496l12.48 5.192 4.992 12.98c.094.245.255.457.462.608s.454.236.708.244c.263-.006.518-.094.731-.253s.376-.382.465-.639l10.4-29.745c.089-.239.11-.5.062-.751s-.164-.483-.335-.669zM19.482 27.443l-3.627-9.464 6.227-6.476-1.833-1.906-6.279 6.53-9.048-3.826 22.79-8.558-8.229 23.701z"/></symbol></defs></svg>