<svg aria-hidden="true" style="position:absolute;width:0;height:0;overflow:hidden" xmlns="http://www.w3.org/2000/svg"><defs><symbol id="icon-01" viewBox="0 0 37 32"><path fill="#0d5c63" style="fill:var(--color1, #0d5c63)" d="M33.24 6.654h-3.957V2.697c0-.7-.278-1.371-.773-1.865S27.344.059 26.645.059H10.818c-.7 0-1.371.278-1.865.773S8.18 1.998 8.18 2.697v3.957H4.223c-1.049 0-2.056.417-2.798 1.159S.266 9.561.266 10.611v18.465c0 .7.278 1.371.773 1.865s1.166.773 1.865.773h31.654c.7 0 1.371-.278 1.865-.773s.773-1.166.773-1.865V10.611c0-1.049-.417-2.056-1.159-2.798s-1.748-1.159-2.798-1.159zM10.818 2.697h15.827v3.957H10.818V2.697zm23.741 26.379H2.905v-11.87h10.551v6.595h10.551v-6.595h10.551v11.87zM16.094 17.205h5.276v3.957h-5.276v-3.957zM2.905 14.568v-3.957c0-.35.139-.685.386-.933s.583-.386.933-.386H33.24c.35 0 .685.139.933.386s.386.583.386.933v3.957H2.905z"/></symbol><symbol id="icon-02" viewBox="0 0 32 32"><path fill="#0d5c63" style="fill:var(--color1, #0d5c63)" opacity=".15" d="M29.1 9.167H2.9c-.012 0-.02.008-.02.02v3.604c0 2.363 1.96 4.279 4.372 4.279 1.628 0 3.048-.869 3.804-2.161.116-.202.336-.328.572-.328s.452.126.572.328c.752 1.292 2.172 2.161 3.8 2.161 1.632 0 3.056-.873 3.804-2.169.116-.198.328-.32.556-.32h.024c.232 0 .44.122.556.32.752 1.296 2.176 2.169 3.808 2.169 2.412 0 4.372-1.916 4.372-4.279V9.187c0-.012-.008-.02-.02-.02z"/><path fill="#0d5c63" style="fill:var(--color1, #0d5c63)" d="M30.8 6.326V1.265c0-.699-.572-1.264-1.28-1.264H2.48c-.708 0-1.28.565-1.28 1.264v5.061c-.668.04-1.2.589-1.2 1.26v5.204c-.003.956.193 1.903.576 2.782.172.403.384.782.624 1.142v13.632c0 .695.572 1.264 1.28 1.264h27.04c.708 0 1.28-.565 1.28-1.264V16.714c.244-.36.453-.743.624-1.142.38-.881.576-1.818.576-2.782V7.586c0-.672-.532-1.221-1.2-1.26zM4.08 2.845h23.84v3.477H4.08V2.845zm14.48 25.924h-5.12v-4.113h5.12v4.113zm9.376 0H21.12v-5.378c0-.699-.572-1.264-1.28-1.264h-7.68c-.708 0-1.28.565-1.28 1.264v5.378h-6.8v-9.57c.116.055.236.111.36.158.892.371 1.84.557 2.816.557s1.92-.186 2.816-.557c.552-.229 1.072-.522 1.548-.873.008-.004.016-.004.024 0 .477.353.997.646 1.548.873.892.371 1.84.557 2.816.557s1.92-.186 2.816-.557c.552-.229 1.072-.522 1.548-.873.008-.004.016-.004.024 0 .477.353.997.646 1.548.873.892.371 1.84.557 2.816.557s1.92-.186 2.816-.557c.12-.051.24-.103.36-.158v9.57zM29.12 12.79c0 2.363-1.96 4.279-4.372 4.279-1.632 0-3.056-.873-3.808-2.169-.116-.198-.324-.32-.556-.32h-.024c-.228 0-.44.122-.556.32-.384.661-.938 1.21-1.606 1.591s-1.427.58-2.198.578c-1.628 0-3.048-.869-3.8-2.161-.12-.201-.336-.328-.572-.328s-.456.126-.572.328c-.386.659-.941 1.205-1.609 1.585s-1.425.578-2.195.577c-2.412 0-4.372-1.916-4.372-4.279V9.188c0-.012.008-.02.02-.02h26.2c.012 0 .02.008.02.02v3.603z"/></symbol><symbol id="icon-03" viewBox="0 0 40 32"><path fill="#fff" style="fill:var(--color2, #fff)" d="M24.54 7.262h10.104v2.901H24.54V7.262zM24.54 14.516h10.104v2.901H24.54v-2.901zM24.54 21.769h10.104v2.901H24.54v-2.901z"/><path fill="#fff" style="fill:var(--color2, #fff)" d="M37.53.009H2.89C2.125.01 1.391.316.85.86S.004 2.141.004 2.911v26.112c.001.769.305 1.507.846 2.051s1.275.85 2.04.851h34.64c.765-.001 1.499-.307 2.04-.851s.846-1.281.847-2.05V2.912c-.001-.769-.305-1.507-.846-2.051s-1.275-.85-2.04-.851zM2.89 2.911h15.877v26.112H2.89V2.911zm18.764 26.112V2.911h15.877l.003 26.112h-15.88z"/></symbol></defs></svg>